<svg width="14" height="14" fill="none" xmlns="http://www.w3.org/2000/svg"><g clip-path="url(#clip0)"><path d="M2.655 9.655a4.345 4.345 0 108.69 0c0-2.414-1.207-4.345-.397-6.034 0 0-1.293.241-2.017 2.172 0 0-2.414-2.414-1.405-5.793 0 0-2.457.966-2.2 4.103.22 2.691-.257 3.138-.257 3.138 0-2.172-1.698-3.138-1.698-3.138.491 2.656-.716 3.38-.716 5.552z" fill="#FFB446"/><path d="M10.136 10.684c0 1.808-1.395 3.35-3.202 3.316-1.7-.033-2.966-1.327-2.83-3.017.06-.754.633-1.976 1.568-3.213l.624.377C6.276 6.618 7 4.587 7 4.587c.476 2.14 3.136 2.695 3.136 6.097z" fill="#FFDC64"/><path d="M5.793 9.172c-.241 1.449-.724 1.976-.724 2.897C5.069 13.034 5.934 14 7 14a1.937 1.937 0 001.931-1.952c-.008-2.885-1.69-4.324-1.69-4.324.242 1.448-.482 2.173-.482 2.173-.302-.453-.966-.725-.966-.725z" fill="#fff"/></g><defs><clipPath id="clip0"><path fill="#fff" d="M0 0h14v14H0z"/></clipPath></defs></svg>