<svg width="21" height="21" fill="none" xmlns="http://www.w3.org/2000/svg"><g clip-path="url(#clip0)" fill="#FFC582"><path d="M20.185 7.874a.341.341 0 00-.438-.06l-.894.576V1.13a.751.751 0 00-.811-.7H2.494a.751.751 0 00-.81.687l-.001.013V8.1l-.429-.277a.341.341 0 00-.46.06A3.503 3.503 0 000 10.15v7.2c.019 1.558.867 3.222 3.24 3.222h14.53c1.558 0 3.227-.848 3.227-3.227V10.15a3.195 3.195 0 00-.812-2.277zM2.495 1.12H18.05c.074 0 .115.027.115 0v7.73l-7.66 4.969L2.378 8.55l-.01-7.389a.17.17 0 01.125-.041zm-1.67 17a3.314 3.314 0 01-.096-.77l-.014-7.2a2.96 2.96 0 01.433-1.567l6.629 4.296-6.952 5.24zm16.945 1.76l-.005-.004H3.241c-1.208 0-1.844-.512-2.171-1.093l7.32-5.517 1.926 1.249a.347.347 0 00.148.037.347.347 0 00.147-.037l1.877-1.217 7.347 5.532a2.535 2.535 0 01-2.065 1.05zm2.53-9.735l-.004 7.2c.001.28-.033.559-.101.83l-7.002-5.269 6.674-4.328c.303.465.454 1.013.434 1.567z"/><path d="M11.945 3.175a3.171 3.171 0 00-4.62 2.823 3.176 3.176 0 003.946 3.06.304.304 0 00.22-.147.3.3 0 00.029-.254.267.267 0 00-.106-.184.341.341 0 00-.282-.05 2.22 2.22 0 01-.622.064 2.508 2.508 0 112.503-2.512c.004.4-.093.795-.281 1.147a.82.82 0 01-.397.378h-.069c-.097 0-.101-.253-.101-.253V5.984a1.669 1.669 0 10-3.333 0 1.72 1.72 0 001.673 1.751c.37.002.727-.127 1.01-.364v.023c.003.176.06.346.161.489.139.185.36.29.59.281.069.01.139.01.208 0a1.51 1.51 0 00.843-.691v-.028c.8-1.558.186-3.47-1.372-4.27zm-1.44 3.888l.005.004a1.023 1.023 0 01-.991-1.078 1.042 1.042 0 01.986-1.088 1.06 1.06 0 011 1.088 1.042 1.042 0 01-1 1.074z"/></g><defs><clipPath id="clip0"><path fill="#fff" d="M0 0h21v21H0z"/></clipPath></defs></svg>