<svg width="20" height="20" viewBox="0 0 20 20" fill="none" xmlns="http://www.w3.org/2000/svg">
<path d="M9.11567 11.0004L2.18234 4.06702C1.93823 3.82292 1.93823 3.42715 2.18234 3.18308C2.42644 2.93901 2.82221 2.93897 3.06628 3.18308L9.99965 10.1164L16.933 3.18308C17.1771 2.93897 17.5728 2.93897 17.8169 3.18308C18.061 3.42718 18.061 3.82295 17.8169 4.06702L10.8836 11.0004L17.8169 17.9337C18.061 18.1778 18.061 18.5736 17.8169 18.8177C17.6949 18.9397 17.5349 19.0007 17.3749 19.0007C17.215 19.0007 17.055 18.9397 16.9329 18.8177L9.99965 11.8843L3.06631 18.8177C2.94428 18.9397 2.7843 19.0007 2.62432 19.0007C2.46435 19.0007 2.30441 18.9397 2.18234 18.8177C1.93823 18.5736 1.93823 18.1778 2.18234 17.9337L9.11567 11.0004Z" fill="#AEAEAE"/>
</svg>
