<svg width="16" height="16" fill="none" xmlns="http://www.w3.org/2000/svg"><g clip-path="url(#clip0)" fill="#FFC582"><path d="M15.367 3.53L8.102.023a.234.234 0 00-.204 0L.634 3.53a.234.234 0 00-.133.211v8.518c0 .09.052.171.133.21l7.264 3.508a.235.235 0 00.204 0l7.265-3.507a.234.234 0 00.132-.211V3.74a.234.234 0 00-.132-.21zM8 .495l6.726 3.246-1.95.942a.235.235 0 00-.04-.025l-6.68-3.225L8 .495zM5.527 1.698l6.716 3.242-1.376.664-6.713-3.24 1.373-.666zM12.4 5.385v2.454l-1.285.62V6.005l1.285-.62zm2.63 6.726l-6.796 3.281V7.396l1.621-.783a.234.234 0 10-.203-.422L8 6.988l-.65-.314a.234.234 0 10-.204.423l.62.299v7.996L.97 12.112V4.114l5.175 2.498a.233.233 0 00.313-.11.234.234 0 00-.11-.312L1.275 3.74l2.328-1.124 7.04 3.4.003.003v2.813a.234.234 0 00.337.21l1.753-.846a.234.234 0 00.133-.21V5.157l2.161-1.043v7.996z"/><path d="M2.904 11.203l-1.066-.515a.234.234 0 10-.204.422l1.066.515a.233.233 0 00.313-.11.234.234 0 00-.11-.312zm.981-.639L1.84 9.576a.234.234 0 10-.203.422l2.045.988a.234.234 0 10.204-.422z"/></g><defs><clipPath id="clip0"><path fill="#fff" d="M0 0h16v16H0z"/></clipPath></defs></svg>