<svg width="14" height="14" fill="none" xmlns="http://www.w3.org/2000/svg"><path d="M7 0a7 7 0 107 7 7.008 7.008 0 00-7-7zm0 13.533A6.533 6.533 0 1113.533 7 6.54 6.54 0 017 13.533z" fill="#FFC582"/><path d="M7 .933A6.067 6.067 0 1013.067 7 6.074 6.074 0 007 .933zM7 12.6A5.6 5.6 0 1112.6 7 5.607 5.607 0 017 12.6z" fill="#FFC582"/><path d="M2.567 6.767h-.934v.466h.934v-.466zm9.8 0h-.934v.466h.934v-.466zM3.044 9.015l-.809.466.234.405.808-.467-.233-.404zm8.487-4.901l-.808.467.233.404.809-.466-.234-.405zm-9.062.001l-.233.404.808.467.233-.405-.808-.466zm8.487 4.899l-.233.404.808.467.234-.405-.809-.466zM4.518 2.235l-.404.234.466.808.404-.233-.466-.809zm2.715-.602h-.466v.934h.466v-.934zm2.248.603l-.467.808.405.233.466-.808-.404-.233zm-7.605 3.15l-.12.45.676.182.12-.451-.676-.181zm9.69 2.596l-.12.45.676.182.12-.451-.676-.181zM3.37 3.04l-.33.33.495.495.33-.33-.495-.495zm2.465-1.284l-.45.12.18.677.451-.12-.18-.677zm2.328.001l-.181.676.45.12.182-.675-.45-.121zm2.467 1.284l-.495.495.33.33.495-.495-.33-.33zm1.494 2.345l-.676.18.121.452.676-.182-.12-.45zM2.432 7.982l-.676.182.12.45.677-.18-.121-.452zM7.99 3.16a3.967 3.967 0 00-4.426 5.823.233.233 0 00.404-.233 3.5 3.5 0 116.422-.875.233.233 0 10.452.117A3.967 3.967 0 007.99 3.16z" fill="#FFC582"/><path d="M10.414 8.686l-2.566-2.1a.219.219 0 00-.022-.012.93.93 0 10-.882 1.354l3.243 1.158a.233.233 0 00.227-.4zM7 7.466a.467.467 0 110-.933.467.467 0 010 .934zm.636.213a.928.928 0 00.264-.447l1.177.961-1.441-.514zm.297 1.655H6.067a1.167 1.167 0 000 2.333h1.866a1.167 1.167 0 100-2.333zm0 1.866H6.067a.7.7 0 110-1.4h1.866a.7.7 0 010 1.4z" fill="#FFC582"/><path d="M6.533 10.267h-.466a.233.233 0 000 .466h.466a.233.233 0 000-.466zm1.4 0h-.466a.233.233 0 000 .466h.466a.233.233 0 000-.466z" fill="#FFC582"/></svg>