<svg width="16" height="16" fill="none" xmlns="http://www.w3.org/2000/svg"><g clip-path="url(#clip0)" fill="#FFC582"><path d="M15.97 8.739a6.325 6.325 0 00-1.819-3.836 6.275 6.275 0 00-3.087-1.695v-.794A1.064 1.064 0 0010.808.32h-2.25A1.064 1.064 0 008.3 2.414v.796a6.275 6.275 0 00-3.608 2.295l-.023-.001H2.443a.313.313 0 000 .625h1.825a6.234 6.234 0 00-.554 1.201H.313a.313.313 0 000 .625h3.224a6.33 6.33 0 00-.155 1.201H2a.313.313 0 000 .625h1.392c.026.405.091.807.195 1.201H1.563a.313.313 0 000 .625h2.224a6.276 6.276 0 001.437 2.223 6.324 6.324 0 004.459 1.849 6.33 6.33 0 003.445-1.018.313.313 0 10-.341-.524c-2.236 1.456-5.231 1.141-7.121-.749a5.694 5.694 0 010-8.043 5.694 5.694 0 018.043 0c1.888 1.887 2.205 4.88.753 7.115a.313.313 0 00.524.34 6.333 6.333 0 00.983-4.061zM8.12 1.383a.44.44 0 01.438-.438h2.25a.438.438 0 010 .875h-2.25a.438.438 0 01-.438-.437zm.806 1.72v-.658h1.513v.657a6.368 6.368 0 00-1.513 0z"/><path d="M13.93 13.297a.314.314 0 00-.312.312.314.314 0 00.533.221.314.314 0 000-.442.315.315 0 00-.22-.091zM9.688 4.519A4.853 4.853 0 004.84 9.367a4.853 4.853 0 004.848 4.848 4.853 4.853 0 004.848-4.848 4.853 4.853 0 00-4.848-4.848zm0 9.07a4.228 4.228 0 01-4.223-4.222 4.228 4.228 0 014.223-4.223 4.228 4.228 0 014.223 4.223 4.228 4.228 0 01-4.223 4.223z"/><path d="M11.664 6.948l-1.547 1.548a.965.965 0 00-.858 0l-.693-.693a.313.313 0 00-.442.442l.693.693a.972.972 0 101.842.429c0-.154-.036-.3-.1-.43l1.502-1.502.045-.045a.313.313 0 00-.442-.442zM9.688 9.713a.346.346 0 110-.693.346.346 0 010 .693zm3.341-.655h-.29a.312.312 0 100 .625h.29a.312.312 0 100-.625zM6.636 9.05h-.29a.313.313 0 000 .625h.29a.313.313 0 000-.625zm3.055-2.423c.173 0 .313-.14.313-.312v-.29a.313.313 0 00-.625 0v.29c0 .172.14.312.313.312zm-.007 5.478a.313.313 0 00-.313.313v.29a.313.313 0 00.625 0v-.29a.313.313 0 00-.312-.313zM.313 10.982a.315.315 0 00-.313.313.314.314 0 00.313.312.315.315 0 00.312-.312.315.315 0 00-.313-.313z"/></g><defs><clipPath id="clip0"><path fill="#fff" d="M0 0h16v16H0z"/></clipPath></defs></svg>