<svg width="16" height="16" fill="none" xmlns="http://www.w3.org/2000/svg"><path d="M13.203 8.457a.233.233 0 00-.233.233.296.296 0 01-.591 0 .233.233 0 10-.466 0 .762.762 0 001.523 0 .233.233 0 00-.233-.233z" fill="#FFC582"/><path d="M15.389 8.495l-.655-.21a.274.274 0 01-.177-.18 4.227 4.227 0 00-.62-1.225 4.498 4.498 0 00-.414-.488c.097-.424.15-.905.143-1.32-.01-.593-.129-.94-.363-1.063-.126-.066-.51-.267-2.587.684a.754.754 0 00-.137.082 9.049 9.049 0 00-.428-.104l-.052-.01a3.2 3.2 0 00.285-1.18.233.233 0 10-.465-.021 2.705 2.705 0 01-1.773 2.422 6.752 6.752 0 00-1.874 0 2.696 2.696 0 01-.981-.626 2.695 2.695 0 01-.795-1.918c0-.725.282-1.406.795-1.918A2.695 2.695 0 017.209.625c.724 0 1.405.283 1.918.795.206.206.376.44.505.698a.233.233 0 10.416-.21 3.174 3.174 0 00-.592-.817A3.153 3.153 0 007.21.16c-.85 0-1.647.33-2.247.93a3.16 3.16 0 00-.931 2.248 3.177 3.177 0 001.492 2.694 7.1 7.1 0 00-.431.127.233.233 0 00.148.442 6.249 6.249 0 013.938 0 .233.233 0 10.148-.442 6.548 6.548 0 00-.43-.127 3.176 3.176 0 00.966-.945 9.027 9.027 0 01.44.097l-.007.03c-.114.54-.107 1.016.021 1.417.116.36.323.653.618.868.347.254.766.364 1.146.364.286 0 .55-.062.743-.172.219-.124.402-.385.547-.777a3.759 3.759 0 01.742 1.331.74.74 0 00.48.483l.655.21a.412.412 0 01.287.394v1.087c0 .18-.115.339-.287.394l-1.056.338a.72.72 0 00-.403.327c-.414.717-1.067 1.31-1.938 1.763a.365.365 0 00-.192.257l-.338 1.791a.105.105 0 01-.103.085h-1.1a.105.105 0 01-.102-.085l-.187-.99a.366.366 0 00-.416-.294 9.737 9.737 0 01-2.518.048.369.369 0 00-.404.296l-.178.94a.105.105 0 01-.102.085h-1.1a.105.105 0 01-.103-.086l-.326-1.691a.366.366 0 00-.187-.254c-1.486-.793-2.271-2.118-2.271-3.832 0-.866.189-1.632.563-2.276.348-.601.857-1.098 1.513-1.478a.233.233 0 00-.233-.403c-1.271.736-2.038 1.87-2.25 3.311L1.75 8.66a1.16 1.16 0 00-.086-.465c-.135-.336-.412-.578-.707-.617a.644.644 0 00-.606.27c-.222.293-.186.526-.116.669.117.241.418.412.919.52a.91.91 0 01-.046.062c-.295.37-.644.453-.87.46A.244.244 0 000 9.801v.002c0 .13.103.237.234.243h.052c.286 0 .745-.105 1.187-.658.07-.087.126-.18.17-.274l.126.013a6.116 6.116 0 00-.012.384c0 .97.231 1.834.687 2.57.42.678 1.022 1.233 1.79 1.65l.316 1.645a.57.57 0 00.56.464h1.1a.57.57 0 00.56-.464l.16-.85a10.23 10.23 0 002.457-.046l.17.896a.57.57 0 00.56.464h1.1a.57.57 0 00.56-.464l.33-1.744c.93-.492 1.631-1.138 2.084-1.921a.255.255 0 01.142-.117l1.056-.338A.877.877 0 0016 10.42V9.332a.877.877 0 00-.611-.837zm-2.224-2.768c-.09.767-.33 1.422-.572 1.559-.274.156-.908.186-1.384-.163-.477-.348-.635-.975-.459-1.812a.281.281 0 01.16-.195c1.166-.533 1.838-.708 2.088-.708.037 0 .065.004.084.011.075.08.173.535.083 1.308zM.654 8.312c-.024-.05.033-.137.069-.184.057-.076.11-.091.15-.091l.023.001c.107.015.257.132.336.33a.707.707 0 01.049.22C.959 8.52.708 8.425.654 8.312z" fill="#FFC582"/><path d="M7.435 3.071v-.833c.287.02.394.152.493.152.123 0 .18-.156.18-.234 0-.201-.394-.287-.673-.295V1.75c0-.05-.062-.095-.123-.095-.07 0-.12.045-.12.095v.119c-.39.04-.78.246-.78.763 0 .526.411.673.78.805V4.4c-.418-.032-.529-.32-.664-.32-.103 0-.19.136-.19.234 0 .201.346.476.855.485v.127c0 .05.049.094.119.094.061 0 .123-.045.123-.094v-.14c.443-.061.747-.34.747-.845 0-.559-.39-.74-.747-.87zm-.218-.078c-.217-.082-.394-.168-.394-.402 0-.213.164-.316.394-.345v.747zm.193 1.4v-.866c.201.086.361.201.361.46 0 .234-.14.365-.36.406z" fill="#FFC582"/></svg>