<svg width="14" height="15" fill="none" xmlns="http://www.w3.org/2000/svg"><g clip-path="url(#clip0)" fill="#FFC582"><path d="M2.462 11.511a1.09 1.09 0 00-.551.15A7.151 7.151 0 01.547 7.444C.547 3.663 3.442.586 7 .586c.433 0 .865.046 1.285.136.148.032.292-.07.322-.227a.29.29 0 00-.214-.343A6.65 6.65 0 007 .005c-1.87 0-3.628.774-4.95 2.179C.728 3.589 0 5.457 0 7.444c0 1.672.534 3.303 1.506 4.61a1.267 1.267 0 00-.192.678c0 .326.12.632.336.863.217.23.506.357.812.357.307 0 .595-.127.812-.357.217-.23.337-.537.337-.863 0-.326-.12-.633-.337-.863a1.108 1.108 0 00-.812-.358zm.426 1.673a.58.58 0 01-.851 0 .656.656 0 01-.176-.452c0-.171.062-.332.176-.452a.58.58 0 01.85 0c.114.12.177.281.177.452a.66.66 0 01-.176.452zm9.605-10.346a1.28 1.28 0 00-.143-1.54 1.108 1.108 0 00-.812-.358c-.307 0-.595.127-.812.358-.217.23-.337.537-.337.863 0 .326.12.632.337.863.216.23.505.357.812.357.196 0 .384-.051.551-.15a7.152 7.152 0 011.364 4.217c0 3.782-2.895 6.859-6.453 6.859-.428 0-.857-.045-1.273-.134a.275.275 0 00-.322.228.29.29 0 00.215.342c.451.096.916.145 1.38.145 1.87 0 3.628-.774 4.95-2.179C13.272 11.304 14 9.436 14 7.449a7.755 7.755 0 00-1.507-4.611zm-1.38-.225a.656.656 0 01-.177-.452.66.66 0 01.176-.452.58.58 0 01.851 0 .669.669 0 010 .904.58.58 0 01-.85 0z"/><path d="M5.872 12.445c0 .16.122.29.273.29h1.71c.15 0 .273-.13.273-.29v-.563a4.15 4.15 0 001.026-.452l.375.397c.051.055.12.086.193.086a.262.262 0 00.193-.086l1.209-1.285a.304.304 0 000-.41l-.374-.398a4.69 4.69 0 00.425-1.09h.528c.152 0 .274-.13.274-.291V6.536c0-.161-.123-.291-.274-.291h-.528a4.718 4.718 0 00-.425-1.09l.372-.396a.3.3 0 00.08-.205.3.3 0 00-.08-.206l-1.21-1.284a.262.262 0 00-.386 0l-.372.395a4.146 4.146 0 00-1.026-.453v-.558c0-.16-.122-.29-.273-.29h-1.71c-.15 0-.273.13-.273.29v.559c-.36.102-.704.254-1.027.452l-.37-.395a.262.262 0 00-.388 0L2.878 4.348a.3.3 0 00-.08.206.3.3 0 00.08.205l.372.395a4.712 4.712 0 00-.426 1.09h-.527c-.15 0-.273.131-.273.291l-.001 1.817a.3.3 0 00.08.206c.051.055.12.085.193.085h.528c.097.382.24.748.426 1.09l-.374.398a.304.304 0 000 .411l1.208 1.285a.266.266 0 00.194.086.264.264 0 00.193-.086l.374-.397c.323.197.667.349 1.027.452v.563zm-.92-1.627a.262.262 0 00-.341.04l-.333.353-.822-.874.333-.354a.304.304 0 00.036-.363 4.118 4.118 0 01-.518-1.329.278.278 0 00-.267-.229h-.47V6.826h.47c.128 0 .24-.095.267-.23.096-.473.27-.92.518-1.328a.304.304 0 00-.036-.363l-.33-.351.822-.874.33.351a.262.262 0 00.342.039 3.623 3.623 0 011.25-.55.287.287 0 00.215-.285V2.74h1.163v.496c0 .137.09.256.216.284.446.102.867.287 1.25.55a.26.26 0 00.342-.038l.33-.35.823.873-.33.35a.304.304 0 00-.037.364c.248.408.422.855.518 1.329.027.134.138.23.267.23h.47v1.235h-.47a.278.278 0 00-.267.23 4.13 4.13 0 01-.518 1.328.304.304 0 00.036.363l.333.354-.822.874-.333-.354a.261.261 0 00-.342-.038 3.626 3.626 0 01-1.25.55.287.287 0 00-.216.284v.502H6.418v-.502a.287.287 0 00-.216-.284 3.624 3.624 0 01-1.25-.55z"/><path d="M9.26 7.444c0-1.325-1.014-2.402-2.26-2.402-1.246 0-2.26 1.077-2.26 2.402 0 1.324 1.014 2.401 2.26 2.401 1.246 0 2.26-1.077 2.26-2.401zm-3.972 0c0-1.004.768-1.82 1.712-1.82s1.713.816 1.713 1.82c0 1.003-.769 1.82-1.713 1.82-.944 0-1.712-.817-1.712-1.82zm4.23-6.336a.267.267 0 00.193-.086.307.307 0 000-.413.267.267 0 00-.193-.086.266.266 0 00-.194.086.306.306 0 000 .413.265.265 0 00.194.086zM4.494 13.786a.267.267 0 00-.193.085.306.306 0 000 .414c.05.054.121.085.193.085a.267.267 0 00.194-.085.306.306 0 000-.414.267.267 0 00-.194-.085z"/></g><defs><clipPath id="clip0"><path fill="#fff" transform="translate(0 .005)" d="M0 0h14v14.879H0z"/></clipPath></defs></svg>