<svg width="20" height="20" fill="none" xmlns="http://www.w3.org/2000/svg"><path d="M3.74 13.465h-.003a.292.292 0 00-.291.293.294.294 0 00.587 0 .293.293 0 00-.292-.293zm2.506 0h-.003a.292.292 0 00-.292.293.294.294 0 00.588 0 .293.293 0 00-.293-.293zm10.333 0h-.003a.292.292 0 00-.292.293.294.294 0 00.588 0 .293.293 0 00-.293-.293z" fill="#FFC582"/><path d="M19.73 9.922l-.393-.394-.794-2.38a.293.293 0 00-.088-.573h-2.839V5.303a.607.607 0 00-.606-.606H.606A.607.607 0 000 5.303v6.889c0 .334.272.606.606.606H.94v.646c0 .334.272.606.606.606h.675a1.544 1.544 0 002.77.61 1.544 1.544 0 002.77-.61h7.299a1.548 1.548 0 001.517 1.253c.852 0 1.545-.694 1.545-1.546v-.02h1.273a.607.607 0 00.606-.606v-2.559a.913.913 0 00-.27-.65zM2.22 13.464h-.675a.02.02 0 01-.02-.02v-.646h1.002a1.54 1.54 0 00-.307.666zm1.517 1.253a.96.96 0 01-.006-1.92h.012a.96.96 0 01-.006 1.92zm2.505 0a.96.96 0 01-.006-1.92h.012a.96.96 0 01-.006 1.92zm8.817-1.253h-7.3a1.54 1.54 0 00-.306-.666h5.678a.293.293 0 000-.586H.606a.02.02 0 01-.02-.02v-6.89a.02.02 0 01.02-.02H15.01a.02.02 0 01.02.02v6.91h-.646a.293.293 0 000 .586h.982a1.54 1.54 0 00-.307.666zm3.72-3.757h-1.89a.02.02 0 01-.02-.02V8.414h1.479l.43 1.293zm-2.203 5.01a.96.96 0 01-.006-1.92h.008a.96.96 0 01-.002 1.92zm2.838-1.586a.02.02 0 01-.02.02h-1.397a1.548 1.548 0 00-1.421-.94h-.96v-5.03c0-.01.01-.02.02-.02h2.294l.223.667h-1.577a.293.293 0 00-.293.293v1.566c0 .334.272.606.606.606h2.384l.044.044a.331.331 0 01.097.235v.7h-.333a.293.293 0 000 .586h.333v1.273z" fill="#FFC582"/><path d="M14.07 10.96H1.546a.293.293 0 100 .586h12.526a.293.293 0 000-.586z" fill="#FFC582"/></svg>