<svg width="14" height="15" viewBox="0 0 14 15" fill="none" xmlns="http://www.w3.org/2000/svg">
<g clip-path="url(#clip0)">
<path d="M2.46233 11.5113C2.26633 11.5113 2.07791 11.5633 1.91075 11.6609C1.0302 10.4613 0.546875 8.97103 0.546875 7.44434C0.546875 3.66263 3.44168 0.58609 7 0.58609C7.43259 0.58609 7.86496 0.631838 8.28516 0.722084C8.43298 0.753868 8.57739 0.652157 8.6073 0.494822C8.63721 0.337488 8.5415 0.18424 8.39346 0.152341C7.9377 0.0544898 7.4689 0.00488281 7 0.00488281C5.13026 0.00488281 3.37236 0.778729 2.05025 2.18384C0.728134 3.58896 0 5.45722 0 7.44434C0 9.11588 0.534058 10.7471 1.50636 12.0548C1.38118 12.2536 1.31389 12.4872 1.31389 12.7318C1.31389 13.0579 1.43341 13.3644 1.65034 13.5948C1.86717 13.8254 2.15556 13.9524 2.46233 13.9524C2.76909 13.9524 3.05748 13.8254 3.27441 13.5948C3.49135 13.3644 3.61076 13.0578 3.61076 12.7317C3.61076 12.4058 3.49135 12.0992 3.27441 11.8688C3.05748 11.6382 2.76909 11.5113 2.46233 11.5113ZM2.88765 13.1839C2.77411 13.3047 2.62297 13.3712 2.46233 13.3712C2.30168 13.3712 2.15065 13.3047 2.037 13.1839C1.92335 13.0631 1.86076 12.9026 1.86076 12.7318C1.86076 12.561 1.92335 12.4005 2.037 12.2797C2.15054 12.1589 2.30168 12.0925 2.46233 12.0925C2.62297 12.0925 2.774 12.159 2.88765 12.2797C3.0013 12.4005 3.06389 12.561 3.06389 12.7318C3.06389 12.9026 3.0013 13.0631 2.88765 13.1839Z" fill="#FFC582"/>
<path d="M12.4934 2.83764C12.7907 2.36371 12.743 1.71575 12.3498 1.29789C12.1328 1.06746 11.8445 0.94043 11.5377 0.94043C11.2309 0.94043 10.9425 1.06746 10.7256 1.29789C10.5087 1.52845 10.3893 1.83494 10.3893 2.16096C10.3893 2.48699 10.5087 2.79348 10.7256 3.02403C10.9425 3.25459 11.2309 3.3815 11.5377 3.3815C11.7337 3.3815 11.9221 3.32951 12.0893 3.23188C12.9698 4.43164 13.4531 5.92178 13.4531 7.44847C13.4531 11.2302 10.5583 14.3067 7.00001 14.3067C6.5717 14.3067 6.14339 14.2619 5.72714 14.1733C5.5791 14.1419 5.43501 14.2439 5.40532 14.4013C5.37573 14.5587 5.47175 14.7117 5.61979 14.7433C6.07129 14.8392 6.5357 14.8879 7.00001 14.8879C8.86975 14.8879 10.6277 14.1141 11.9498 12.709C13.2719 11.3038 14 9.43559 14 7.44847C14 5.77682 13.4659 4.14547 12.4934 2.83764ZM11.1124 2.6131C10.9987 2.49232 10.9361 2.33181 10.9361 2.16096C10.9361 1.99023 10.9987 1.82972 11.1124 1.70894C11.2259 1.58816 11.377 1.52164 11.5377 1.52164C11.6983 1.52164 11.8495 1.58816 11.9631 1.70894C12.1976 1.95822 12.1976 2.36382 11.9631 2.6131C11.8495 2.73377 11.6983 2.80029 11.5377 2.80029C11.3769 2.80029 11.2259 2.73377 11.1124 2.6131Z" fill="#FFC582"/>
<path d="M5.87158 12.4451C5.87158 12.6056 5.99409 12.7357 6.14502 12.7357H7.85475C8.00578 12.7357 8.12818 12.6056 8.12818 12.4451V11.8817C8.48771 11.7788 8.83143 11.6274 9.15443 11.4297L9.5287 11.8274C9.57996 11.8819 9.6495 11.9126 9.72213 11.9126C9.79455 11.9126 9.86419 11.8819 9.91546 11.8273L11.1239 10.5421C11.2306 10.4286 11.2306 10.2446 11.1239 10.1311L10.7501 9.73384C10.9361 9.39056 11.0786 9.02527 11.1754 8.64317H11.7035C11.8545 8.64317 11.9769 8.51308 11.9769 8.35256V6.5355C11.9769 6.37499 11.8545 6.24489 11.7035 6.24489H11.1753C11.0785 5.86291 10.9361 5.49761 10.7501 5.15434L11.1219 4.75918C11.1732 4.7047 11.202 4.63068 11.202 4.5536C11.2019 4.47653 11.1731 4.40251 11.1218 4.34803L9.91236 3.06369C9.80566 2.95029 9.63252 2.95029 9.5257 3.06381L9.15443 3.45851C8.83143 3.26076 8.48771 3.10933 8.12818 3.00648V2.44832C8.12818 2.28781 8.00578 2.15771 7.85475 2.15771H6.14502C5.99409 2.15771 5.87158 2.28781 5.87158 2.44832V3.0066C5.51216 3.10933 5.16844 3.26076 4.84544 3.45851L4.47406 3.06381C4.36735 2.9504 4.19421 2.95029 4.0874 3.06369L2.87808 4.34814C2.82671 4.40263 2.79787 4.47653 2.79787 4.5536C2.79787 4.63068 2.82671 4.7047 2.87798 4.75918L3.24979 5.15434C3.06372 5.49761 2.92123 5.8628 2.82446 6.24489H2.29735C2.14632 6.24489 2.02391 6.37499 2.02391 6.53538L2.02295 8.35245C2.02284 8.42953 2.05168 8.50354 2.10295 8.55803C2.15422 8.61252 2.22375 8.64317 2.29639 8.64317H2.82446C2.92123 9.02527 3.06372 9.39056 3.24979 9.73384L2.87595 10.1311C2.76924 10.2446 2.76913 10.4286 2.87595 10.5421L4.08441 11.8273C4.13568 11.8818 4.20521 11.9126 4.27774 11.9126H4.27785C4.35037 11.9126 4.4199 11.8819 4.47117 11.8274L4.84533 11.4297C5.16844 11.6274 5.51216 11.7788 5.87158 11.8817V12.4451ZM4.95257 10.8185C4.84437 10.7441 4.70199 10.7603 4.61078 10.8571L4.27785 11.2109L3.45593 10.3367L3.78854 9.98312C3.87965 9.88629 3.89482 9.73497 3.82486 9.61998C3.57695 9.21223 3.40263 8.76531 3.30693 8.29149C3.2798 8.15766 3.1685 8.06196 3.03958 8.06196H2.56993L2.57057 6.8261H3.03958C3.1685 6.8261 3.2798 6.73052 3.30693 6.59657C3.40263 6.12286 3.57695 5.67595 3.82486 5.26819C3.89482 5.1532 3.87965 5.00188 3.78854 4.90505L3.45807 4.55372L4.28062 3.6802L4.61078 4.0312C4.70199 4.12803 4.84427 4.14404 4.95257 4.0698C5.33613 3.80632 5.75665 3.62106 6.20248 3.51935C6.32841 3.49052 6.41845 3.37212 6.41845 3.23522V2.73892H7.58131V3.2351C7.58131 3.37212 7.67124 3.49052 7.79728 3.51924C8.24301 3.62106 8.66363 3.80621 9.04719 4.06968C9.15539 4.14404 9.29777 4.12803 9.38888 4.03109L9.71914 3.6802L10.5417 4.55372L10.2112 4.90494C10.12 5.00188 10.1049 5.1532 10.1749 5.26819C10.4228 5.67595 10.597 6.12286 10.6928 6.59657C10.7199 6.73052 10.8313 6.8261 10.9602 6.8261H11.43V8.06196H10.9602C10.8313 8.06196 10.72 8.15766 10.6928 8.29149C10.5971 8.7652 10.4228 9.21223 10.1749 9.61987C10.1049 9.73497 10.1201 9.88629 10.2112 9.98312L10.5438 10.3366L9.72192 11.2108L9.38899 10.8571C9.29777 10.7601 9.15539 10.7441 9.04719 10.8185C8.66352 11.082 8.24301 11.2671 7.79728 11.3689C7.67124 11.3978 7.58131 11.5161 7.58131 11.6531V12.1545H6.41845V11.6531C6.41845 11.5162 6.32841 11.3978 6.20248 11.3689C5.75676 11.2672 5.33624 11.082 4.95257 10.8185Z" fill="#FFC582"/>
<path d="M9.25949 7.44355C9.25949 6.11931 8.24595 5.04199 7.0001 5.04199C5.75426 5.04199 4.74072 6.11931 4.74072 7.44355C4.74072 8.7678 5.75426 9.84511 7.0001 9.84511C8.24595 9.84511 9.25949 8.7678 9.25949 7.44355ZM5.2876 7.44355C5.2876 6.43981 6.05579 5.62328 7.0001 5.62328C7.94442 5.62328 8.71261 6.43992 8.71261 7.44355C8.71261 8.44718 7.94442 9.26382 7.0001 9.26382C6.05579 9.26382 5.2876 8.4473 5.2876 7.44355Z" fill="#FFC582"/>
<path d="M9.51764 1.10809C9.58963 1.10809 9.66013 1.07679 9.71097 1.02242C9.76181 0.967712 9.79108 0.892328 9.79108 0.815346C9.79108 0.73882 9.76192 0.663322 9.71097 0.608612C9.66013 0.554245 9.58963 0.522949 9.51764 0.522949C9.44543 0.522949 9.37526 0.554245 9.32442 0.608612C9.27347 0.663322 9.2442 0.738478 9.2442 0.815346C9.2442 0.892557 9.27347 0.967712 9.32442 1.02242C9.37526 1.07679 9.44543 1.10809 9.51764 1.10809Z" fill="#FFC582"/>
<path d="M4.49426 13.7856C4.42238 13.7856 4.35178 13.8169 4.30093 13.8713C4.25009 13.9257 4.22083 14.0012 4.22083 14.078C4.22083 14.1553 4.25009 14.2304 4.30093 14.2848C4.35178 14.3391 4.42238 14.3704 4.49426 14.3704C4.56615 14.3704 4.63675 14.3391 4.68759 14.2848C4.73843 14.2304 4.7677 14.1549 4.7677 14.078C4.7677 14.0012 4.73843 13.9257 4.68759 13.8713C4.63675 13.8169 4.56615 13.7856 4.49426 13.7856Z" fill="#FFC582"/>
</g>
<defs>
<clipPath id="clip0">
<rect width="14" height="14.8789" fill="white" transform="translate(0 0.00488281)"/>
</clipPath>
</defs>
</svg>
