<svg width="12" height="12" viewBox="0 0 12 12" fill="none" xmlns="http://www.w3.org/2000/svg">
<g clip-path="url(#clip0)">
<path d="M0.750008 0.816157C-0.192992 1.79566 8.06525e-06 2.83616 8.06525e-06 5.99716C8.06525e-06 8.62216 -0.457992 11.2537 1.93901 11.8732C2.68751 12.0657 9.31951 12.0657 10.067 11.8722C11.065 11.6147 11.877 10.8052 11.988 9.39366C12.0035 9.19666 12.0035 2.80116 11.9875 2.60016C11.8695 1.09666 10.944 0.230157 9.7245 0.054657C9.445 0.014157 9.38901 0.00215699 7.95501 -0.000343015C2.86851 0.00215699 1.75351 -0.224343 0.750008 0.816157Z" fill="url(#paint0_linear)"/>
<path d="M5.999 1.56971C4.1835 1.56971 2.4595 1.40821 1.801 3.09821C1.529 3.79621 1.5685 4.70271 1.5685 6.00071C1.5685 7.13971 1.532 8.21021 1.801 8.90271C2.458 10.5937 4.196 10.4317 5.998 10.4317C7.7365 10.4317 9.529 10.6127 10.1955 8.90271C10.468 8.19771 10.428 7.30471 10.428 6.00071C10.428 4.26971 10.5235 3.15221 9.684 2.31321C8.834 1.46321 7.6845 1.56971 5.997 1.56971H5.999ZM5.602 2.36821C9.389 2.36221 9.871 1.94121 9.605 7.78971C9.5105 9.85821 7.9355 9.63121 5.9995 9.63121C2.4695 9.63121 2.368 9.53021 2.368 5.99871C2.368 2.42621 2.648 2.37021 5.602 2.36721V2.36821ZM8.364 3.10371C8.0705 3.10371 7.8325 3.34171 7.8325 3.63521C7.8325 3.92871 8.0705 4.16671 8.364 4.16671C8.6575 4.16671 8.8955 3.92871 8.8955 3.63521C8.8955 3.34171 8.6575 3.10371 8.364 3.10371ZM5.999 3.72521C4.7425 3.72521 3.724 4.74421 3.724 6.00071C3.724 7.25721 4.7425 8.27571 5.999 8.27571C7.2555 8.27571 8.2735 7.25721 8.2735 6.00071C8.2735 4.74421 7.2555 3.72521 5.999 3.72521ZM5.999 4.52371C7.9515 4.52371 7.954 7.47771 5.999 7.47771C4.047 7.47771 4.044 4.52371 5.999 4.52371Z" fill="white"/>
</g>
<defs>
<linearGradient id="paint0_linear" x1="0.773018" y1="11.2332" x2="11.9257" y2="1.58065" gradientUnits="userSpaceOnUse">
<stop stop-color="#FFDD55"/>
<stop offset="0.5" stop-color="#FF543E"/>
<stop offset="1" stop-color="#C837AB"/>
</linearGradient>
<clipPath id="clip0">
<rect width="12" height="12" fill="white"/>
</clipPath>
</defs>
</svg>
