<svg width="12" height="12" viewBox="0 0 12 12" fill="none" xmlns="http://www.w3.org/2000/svg">
<g clip-path="url(#clip0)">
<path d="M9.9575 6.514C9.7635 6.269 9.819 6.16 9.9575 5.941C9.96 5.9385 11.5615 3.7255 11.7265 2.975L11.7275 2.9745C11.8095 2.701 11.7275 2.5 11.331 2.5H10.019C9.685 2.5 9.531 2.6725 9.4485 2.8655C9.4485 2.8655 8.7805 4.4645 7.8355 5.501C7.5305 5.8005 7.3895 5.8965 7.223 5.8965C7.141 5.8965 7.0135 5.8005 7.0135 5.527V2.9745C7.0135 2.6465 6.92 2.5 6.6435 2.5H4.5805C4.371 2.5 4.2465 2.653 4.2465 2.7955C4.2465 3.1065 4.719 3.178 4.768 4.053V5.9515C4.768 6.3675 4.6925 6.444 4.525 6.444C4.079 6.444 2.9965 4.8385 2.355 3.001C2.2255 2.6445 2.099 2.5005 1.7625 2.5005H0.45C0.0755 2.5005 0 2.673 0 2.866C0 3.207 0.446 4.9025 2.074 7.1425C3.159 8.6715 4.687 9.5 6.077 9.5C6.9125 9.5 7.0145 9.316 7.0145 8.9995C7.0145 7.5385 6.939 7.4005 7.3575 7.4005C7.5515 7.4005 7.8855 7.4965 8.6655 8.234C9.557 9.1085 9.7035 9.5 10.2025 9.5H11.5145C11.8885 9.5 12.078 9.316 11.969 8.953C11.7195 8.1895 10.0335 6.619 9.9575 6.514Z" fill="#4B729F"/>
</g>
<defs>
<clipPath id="clip0">
<rect width="12" height="12" fill="white"/>
</clipPath>
</defs>
</svg>
